<?xml version="1.0" encoding="UTF-8" standalone="no"?>
<!-- Generator: Adobe Illustrator 16.0.0, SVG Export Plug-In . SVG Version: 6.00 Build 0)  -->

<svg
   xmlns:dc="http://purl.org/dc/elements/1.1/"
   xmlns:cc="http://creativecommons.org/ns#"
   xmlns:rdf="http://www.w3.org/1999/02/22-rdf-syntax-ns#"
   xmlns:svg="http://www.w3.org/2000/svg"
   xmlns="http://www.w3.org/2000/svg"
   xmlns:sodipodi="http://sodipodi.sourceforge.net/DTD/sodipodi-0.dtd"
   xmlns:inkscape="http://www.inkscape.org/namespaces/inkscape"
   version="1.0"
   id="Layer_1"
   x="0px"
   y="0px"
   width="269.6597"
   height="263.47702"
   viewBox="0 0 269.6597 263.47702"
   enable-background="new 0 0 960 560"
   xml:space="preserve"
   inkscape:version="0.48.2 r9819"
   sodipodi:docname="logo.svg"><metadata
   id="metadata3036"><rdf:RDF><cc:Work
       rdf:about=""><dc:format>image/svg+xml</dc:format><dc:type
         rdf:resource="http://purl.org/dc/dcmitype/StillImage" /></cc:Work></rdf:RDF></metadata><defs
   id="defs3034" /><sodipodi:namedview
   pagecolor="#ffffff"
   bordercolor="#666666"
   borderopacity="1"
   objecttolerance="10"
   gridtolerance="10"
   guidetolerance="10"
   inkscape:pageopacity="0"
   inkscape:pageshadow="2"
   inkscape:window-width="640"
   inkscape:window-height="480"
   id="namedview3032"
   showgrid="false"
   fit-margin-top="0"
   fit-margin-left="0"
   fit-margin-right="0"
   fit-margin-bottom="0"
   inkscape:zoom="0.73333333"
   inkscape:cx="-42.967661"
   inkscape:cy="127.4615"
   inkscape:window-x="0"
   inkscape:window-y="0"
   inkscape:window-maximized="0"
   inkscape:current-layer="Layer_1" />
<path
   d="m 212.8537,239.32602 c 7.159,0 12.964,-4.195 16.727,-12.27 l 1.33,-2.852 -5.44,-2.785 -1.327,2.851 c -3.623,7.769 -9.051,10.299 -16.619,7.746 l -2.88,-0.976 -1.858,6.039 2.881,0.974 c 2.514,0.851 4.918,1.273 7.186,1.273"
   id="path3014"
   inkscape:connector-curvature="0"
   style="fill:#0000ff" />
<path
   d="m 21.9047,91.275017 -5.131,-3.367 -1.606,2.689 c -4.094,6.856 -5.224,15.352003 -3.104,23.306003 2.346,8.795 8.245,16.07 16.614,20.487 l 2.702,1.429 2.724,-5.667 -2.704,-1.427 c -6.828,-3.606 -11.625,-9.476 -13.506,-16.531 -1.664,-6.238 -0.787,-12.884003 2.405,-18.230003 l 1.606,-2.689 z"
   id="path3016"
   inkscape:connector-curvature="0"
   style="fill:#0000ff" />
<path
   d="m 263.7087,187.09902 -0.557,3.117 c -1.867,10.418 -7.515,16.277 -17.699,18.315 -0.032,-0.489 -0.053,-0.974 -0.1,-1.471 -0.176,-1.88 -0.812,-3.544 -1.375,-5.009 -0.921,-2.4 -1.24,-3.502 -0.688,-4.742 l 1.281,-2.875 -5.486,-2.684 -1.28,2.875 c -1.719,3.859 -0.403,7.288 0.558,9.793 0.45,1.174 0.877,2.283 0.967,3.26 1.147,12.246 -2.625,20.877 -12.612,28.867 -8.399,6.721 -16.972,7.168 -29.44,1.521 0.325,-3.878 -0.908,-7.382 -2.47,-10.66 l -1.351,-2.84 -5.418,2.834 1.354,2.838 c 2.204,4.63 2.829,7.991 -0.177,12.483 -5.207,7.783 -11.088,7.851 -19.279,4.935 0.209,-2.567 0.001,-5.385 -0.671,-8.412 l -0.686,-3.091 -5.896,1.439 0.687,3.088 c 1.281,5.769 1.162,13.133 -6.67,15.475 -5.186,1.549 -14.398,2.645 -17.783,-7.451 -2.618,-7.814 -1.812,-13.359 9.918,-20.277 l 2.636,-1.556 -2.967,-5.528 -2.64,1.555 c -4.441,2.619 -7.771,5.289 -10.105,8.143 -9.255,-3.923 -17.382,-8.467 -17.382,-19.039 v -2.873 c 0.255,-0.923 0.491,-1.871 0.687,-2.883 l 0.605,-3.107 -5.932,-1.269 -0.605,3.109 c -1.923,9.901 -6.409,13.327 -16.005,12.187 -8.936,-1.057 -12.103,-4.302 -12.103,-12.406 v -3.172 h -6.053 v 3.172 c 0,14.92 9.975,17.824 17.478,18.711 1.325,0.156 2.591,0.234 3.801,0.234 5.524,0 9.846,-1.648 13.033,-4.943 0.491,1.687 1.157,3.225 1.967,4.627 -2.967,4.754 -6.422,7.685 -11.135,9.401 -11.084,4.037 -21.172,2.121 -29.177,-5.521 -8.58,-8.193 -11.139,-18.44 -7.631,-30.481 0.632,0.161 1.267,0.317 1.934,0.427 l 2.989,0.496 0.946,-6.268 -2.989,-0.495 c -11.782,-1.955 -13.118,-14.324 -11.939,-25.058 4.771,-0.34 9.265,-2.948 12.758,-7.664 l 1.856,-2.504 -4.78,-3.892 -1.856,2.505 c -3.604,4.861 -8.233,6.438 -13.048,4.426 -3.893,-1.625 -8.259,-5.043 -7.521,-12.098 7.311,-1.379 13.782,-4.977 19.053,-10.703 l 2.101,-2.283 -4.358,-4.405 -2.101,2.284 c -6.649,7.225 -15.259,10.314 -25.57,9.2 -7.877,-0.854 -15.685,-5.697 -21.424,-13.287 -5.442,-7.198 -8.039,-15.6 -7.129,-23.055 1.111,-9.121003 6.29,-18.149003 13.513,-23.561003 6.957,-5.21 15.369,-6.941 24.32,-5.02 l 2.966,0.639 1.218,-6.215 -2.964,-0.637 c -6.359,-1.373 -12.5,-1.164 -18.2,0.552 -2.177,-8.199 -3.817,-27.371 9.909,-38.551 13.611,-11.091 31.686,-1.89 32.008,-1.723 l 2.701,1.429 2.728,-5.663 -2.701,-1.43 c -0.257,-0.136 -2.223,-1.15 -5.283,-2.18 0.86,-6.109 4.179,-11.332 8.916,-13.9919997 3.878,-2.172 8.112,-2.305 11.925,-0.372 l 2.726,1.379 2.633,-5.711 -2.724,-1.381 c -5.524,-2.79799997 -11.871,-2.61899997 -17.418,0.492 -6.254,3.511 -10.647,10.2159997 -11.925,18.0339997 -7.683,-1.491 -18.112,-1.377 -27.302,6.108 -16.629,13.547 -14.457,36.542 -11.857,45.839 -1.792,0.916 -3.529,1.992 -5.195,3.24 -8.68,6.502 -14.66,16.938 -15.99800002,27.919003 -1.116,9.139 1.94200002,19.27 8.38900002,27.799 6.746,8.921 16.055,14.628 25.543,15.656 1.549,0.171 3.072,0.254 4.569,0.254 0.278,0 0.544,-0.034 0.82,-0.039 -0.324,7.812 3.799,14.206 11.392,17.377 0.439,0.185 0.88,0.336 1.319,0.479 -1.545,14.215 1.821,24.41 9.44,29.248 -4.434,14.623 -1.299,27.582 9.164,37.576 6.387,6.098 14.06,9.213 22.342,9.213 4.174,0 8.504,-0.791 12.9,-2.39 5.427,-1.979 9.664,-5.289 13.167,-10.315 4.047,3.873 9.144,6.301 13.321,8.082 -1.46,4.156 -1.215,8.795 0.614,14.258 2.746,8.186 9.09,12.67 17.32,12.67 2.459,0 5.086,-0.4 7.834,-1.221 4.793,-1.433 8.194,-4.377 10.043,-8.449 3.235,1.119 6.596,1.947 9.936,1.947 5.581,0 11.096,-2.305 15.833,-9.389 0.502,-0.751 0.919,-1.484 1.291,-2.206 5.196,2.319 10.847,4.216 16.794,4.216 5.816,-0.003 11.914,-1.809 18.134,-6.787 9.328,-7.461 14.222,-16.054 15.052,-26.627 13.297,-2.291 21.264,-10.207 23.658,-23.574 l 0.559,-3.119 -5.951,-1.169 z"
   id="path3018"
   inkscape:connector-curvature="0"
   style="fill:#0000ff" />
<path
   d="m 220.7677,202.84702 c 5.543,-2.652 8.596,-6.75 9.146,-12.297 0.343,-3.479 -0.331,-6.846 -2.032,-10.108 -1.156,-2.226 -2.709,-4.179 -4.662,-5.861 -1.981,-1.706 -4.054,-2.87 -6.215,-3.491 -3.796,-1.088 -7.761,-0.643 -11.896,1.334 -1.771,0.848 -3.425,1.819 -4.97,2.92 -1.549,1.105 -2.758,2.18 -3.643,3.227 0.48,0.531 1.016,1.361 1.602,2.486 l 11.269,21.658 c 0.724,1.469 1.121,2.428 1.187,2.877 3.269,-0.141 6.675,-1.054 10.214,-2.745 m -14.601,-22.174 c 0.761,-0.791 1.632,-1.42 2.611,-1.891 2.112,-1.006 4.182,-1.204 6.21,-0.588 2.373,0.7 4.248,2.382 5.631,5.047 1.42,2.723 1.762,5.311 1.03,7.76 -0.626,2.15 -2.048,3.752 -4.261,4.812 -0.746,0.353 -1.674,0.717 -2.781,1.086 l -8.44,-16.226 z"
   id="path3020"
   inkscape:connector-curvature="0"
   style="fill:#0000ff" />
<path
   d="m 184.6307,186.69402 c 1.31,-2.794 1.189,-5.685 -0.36,-8.661 -0.769,-1.486 -1.78,-2.709 -3.024,-3.682 -1.393,-1.061 -2.877,-1.723 -4.455,-1.979 -2.812,-0.474 -6.084,0.182 -9.815,1.965 -3.197,1.531 -6.085,3.502 -8.667,5.932 0.643,0.667 1.283,1.609 1.913,2.82 l 11.567,22.236 c 0.793,1.629 1.269,2.692 1.436,3.182 l 7.045,-3.365 c -0.652,-0.863 -1.344,-2.012 -2.066,-3.444 l -4.173,-8.015 9.892,5.734 c 1.567,0.942 2.707,1.724 3.423,2.345 l 8.63,-4.124 c -1.396,-0.578 -2.797,-1.256 -4.198,-2.027 l -9.981,-5.637 c 1.268,-0.875 2.21,-1.971 2.833,-3.28 m -16.605,-4.557 c 0.736,-0.476 1.461,-0.886 2.177,-1.226 3.493,-1.673 5.812,-1.408 6.952,0.786 1.209,2.324 -0.252,4.474 -4.39,6.448 -0.34,0.164 -0.784,0.348 -1.324,0.554 l -3.415,-6.562 z"
   id="path3022"
   inkscape:connector-curvature="0"
   style="fill:#0000ff" />
<path
   d="m 127.9447,152.59402 -6.759,3.229 c 0.794,13.658 2.535,24.973 5.231,33.937 l 7.161,-3.425 -0.164,-0.533 c -0.888,-2.953 -1.436,-5.008 -1.645,-6.154 l 9.548,-4.561 c 1.976,2.293 3.434,4.116 4.375,5.465 l 7.028,-3.361 c -7.713,-9.713 -15.969,-17.916 -24.775,-24.597 m 2.407,19.882 c -0.137,-0.91 -0.353,-2.194 -0.64,-3.855 -0.569,-3.197 -0.907,-5.288 -1.007,-6.271 2.356,1.896 4.896,4.324 7.604,7.283 l -5.957,2.843 z"
   id="path3024"
   inkscape:connector-curvature="0"
   style="fill:#0000ff" />
<path
   d="m 98.8257,133.74002 c 1.449,-0.676 2.52,-1.062 3.212,-1.16 l -2.379,-7.46 -19.739,9.434 2.442,7.429 c 0.632,-0.5 1.458,-1.018 2.476,-1.56 l 4.126,-1.972 10.315,19.822 c 0.724,1.428 1.131,2.392 1.219,2.881 l 7.051,-3.364 c -0.67,-0.785 -1.248,-1.646 -1.738,-2.589 l -10.329,-19.861 3.344,-1.6 z"
   id="path3026"
   inkscape:connector-curvature="0"
   style="fill:#0000ff" />
<path
   d="m 76.3167,86.493017 -6.758,3.233 c 0.794,13.658003 2.534,24.972003 5.229,33.937003 l 7.163,-3.422 -0.169,-0.537 c -0.887,-2.956 -1.437,-5.006 -1.645,-6.154 l 9.553,-4.564 c 1.972,2.297 3.428,4.119 4.372,5.464 l 7.026,-3.356 c -7.71,-9.717 -15.967,-17.915003 -24.771,-24.601003 m 2.407,19.889003 c -0.139,-0.912 -0.355,-2.201 -0.642,-3.861 -0.569,-3.195003 -0.904,-5.286003 -1.007,-6.271003 2.36,1.9 4.895,4.322003 7.602,7.283003 l -5.953,2.849 z m -1.105,-26.756003 -9.73,-1.623 -4.57,8.455 3.989,1.94 3.071,-5.604 6.5,1.031 0.74,-4.199 z"
   id="path3028"
   inkscape:connector-curvature="0"
   style="fill:#0000ff" />
<path
   d="m 93.8187,48.785017 c 0.208,-1.735 -0.09,-3.381 -0.899,-4.935 -1.298,-2.496 -3.251,-4.019 -5.855,-4.568 -3.06,-0.637 -6.475,-0.058 -10.235,1.74 -3.54,1.691 -6.36,3.494 -8.465,5.407 0.331,0.356 0.833,1.123 1.5,2.299 l 11.621,22.339 c 0.624,1.236 0.975,2.108 1.058,2.621 4.315,-0.408 7.954,-1.321 10.912,-2.734 3.092,-1.478 5.369,-3.386 6.828,-5.719 0.949,-1.539 1.461,-3.147 1.545,-4.823 0.087,-1.677 -0.278,-3.291 -1.087,-4.845 -1.48,-2.853 -3.895,-4.49 -7.237,-4.923 0.162,-0.752 0.268,-1.373 0.314,-1.859 m -15.606,0.091 c 0.794,-0.648 1.666,-1.193 2.6,-1.643 2.751,-1.314 4.575,-1.11 5.47,0.616 0.93,1.781 -0.215,3.441 -3.425,4.975 -0.789,0.376 -1.519,0.634 -2.187,0.776 l -2.458,-4.724 z m 5.562,10.692 c 0.797,-0.541 1.54,-0.98 2.241,-1.315 3.822,-1.826 6.29,-1.669 7.401,0.468 0.562,1.085 0.517,2.139 -0.14,3.161 -0.564,0.914 -1.508,1.682 -2.833,2.318 -1.069,0.509 -2.308,0.864 -3.712,1.055 l -2.957,-5.687 z"
   id="path3030"
   inkscape:connector-curvature="0"
   style="fill:#0000ff" />
</svg>